<svg width="171" height="40" viewBox="0 0 171 40" fill="none" xmlns="http://www.w3.org/2000/svg">
<path d="M5.50998 33.8745C5.67757 33.7333 5.8312 33.5921 5.97086 33.4509C6.13846 33.3097 6.29208 33.1261 6.43175 32.9002C6.48761 32.7872 6.55744 32.6319 6.64124 32.4342C6.72504 32.2365 6.79487 31.9682 6.85073 31.6293C6.93453 31.2904 7.00436 30.8809 7.06023 30.4008C7.11609 29.8924 7.14402 29.2711 7.14402 28.5368V5.7032C7.14402 3.2744 6.8228 1.67873 6.18036 0.916196C6.06863 0.83147 5.9569 0.746744 5.84517 0.662017C5.76137 0.549051 5.66361 0.450205 5.55188 0.365479H15.3981C16.3198 0.365479 17.2835 0.39372 18.2891 0.450203C19.2946 0.478446 20.3002 0.563173 21.3058 0.704382C22.3393 0.817348 23.3309 0.986799 24.2806 1.21274C25.2582 1.43867 26.152 1.73521 26.9621 2.10236C28.4146 2.75192 29.6715 3.6133 30.733 4.68649C31.7944 5.73144 32.6743 6.90348 33.3726 8.20261C34.0709 9.50174 34.5876 10.8997 34.9228 12.3965C35.2859 13.8934 35.4675 15.4043 35.4675 16.9294C35.4675 21.6175 34.0849 25.529 31.3195 28.6639C30.314 29.7936 29.1827 30.6973 27.9258 31.3751C26.6688 32.0529 25.342 32.5754 23.9454 32.9425C22.5767 33.3097 21.1661 33.5639 19.7136 33.7051C18.2891 33.818 16.8645 33.8745 15.44 33.8745H5.50998ZM27.2135 29.384C30.0347 26.3622 31.4452 22.3094 31.4452 17.2259C31.4452 12.0859 30.0347 8.01904 27.2135 5.02539C26.152 3.86748 24.937 3.0061 23.5683 2.44126C22.2275 1.84818 20.8169 1.42455 19.3365 1.17037C17.8561 0.916196 16.3338 0.789107 14.7696 0.789107C13.2054 0.760865 11.683 0.746745 10.2026 0.746745V33.5356C11.8506 33.5356 13.4428 33.5497 14.9791 33.578C16.5433 33.6062 18.0377 33.5215 19.4622 33.3238C20.8868 33.0979 22.2415 32.6884 23.5264 32.0953C24.8392 31.5022 26.0682 30.5984 27.2135 29.384Z" fill="#131313"/>
<path d="M37.3032 22.7754C37.3032 21.2221 37.4987 19.7112 37.8898 18.2426C38.2808 16.774 38.8814 15.4749 39.6914 14.3452C40.5015 13.2156 41.521 12.3118 42.75 11.634C44.007 10.9562 45.4734 10.6173 47.1494 10.6173C48.3225 10.6173 49.3979 10.815 50.3756 11.2104C51.3811 11.6058 52.247 12.1565 52.9733 12.8625C53.6995 13.5403 54.2721 14.3735 54.6911 15.3619C55.1381 16.3504 55.3894 17.4377 55.4453 18.6239C53.8252 18.6239 52.1912 18.6239 50.5432 18.6239C48.8952 18.5956 47.2751 18.7368 45.6829 19.0475C43.2807 19.5276 41.6886 20.3608 40.9065 21.5469C40.5713 22.0835 40.3618 22.6625 40.278 23.2838C40.1942 23.9051 40.2082 24.5264 40.3199 25.1478C40.4316 25.7408 40.6272 26.3339 40.9065 26.927C41.2137 27.4918 41.5489 28.0002 41.912 28.4521C43.7835 30.6832 46.046 31.7987 48.6996 31.7987C50.4035 31.7987 51.7024 31.4739 52.5962 30.8244C53.518 30.1466 54.2163 29.0169 54.6911 27.4354C54.6911 27.3224 54.761 27.2941 54.9006 27.3506C55.0124 27.3506 55.0403 27.4071 54.9844 27.5201C54.7051 28.4521 54.3001 29.3276 53.7694 30.1466C53.2666 30.9656 52.6521 31.6716 51.9258 32.2647C51.1996 32.8578 50.3895 33.3379 49.4957 33.7051C48.6298 34.044 47.708 34.2134 46.7304 34.2134C44.1606 34.2134 41.9539 33.2108 40.1104 31.2057C38.2389 29.0875 37.3032 26.2774 37.3032 22.7754ZM39.9847 25.1901C39.9288 24.9642 39.8869 24.7524 39.859 24.5547C39.859 24.357 39.859 24.1452 39.859 23.9192C39.859 22.9873 40.0685 22.1965 40.4875 21.5469C40.9065 20.8974 41.4512 20.3749 42.1215 19.9795C42.7919 19.5559 43.5601 19.2311 44.426 19.0051C45.2919 18.7792 46.1717 18.6098 47.0656 18.4968C47.9594 18.3838 48.8253 18.3273 49.6633 18.3273C50.5292 18.2991 51.2834 18.285 51.9258 18.285V17.9461C51.87 17.1271 51.8001 16.421 51.7163 15.8279C51.6605 15.2348 51.5487 14.7547 51.3811 14.3876C50.8504 13.2014 50.1521 12.3401 49.2862 11.8035C48.4203 11.2669 47.4846 10.9986 46.479 10.9986C45.8365 10.9986 45.1801 11.0974 44.5098 11.2951C43.8673 11.4928 43.2249 11.7752 42.5824 12.1424C41.5769 12.679 40.7808 13.4274 40.1942 14.3876C39.6356 15.3478 39.2585 16.421 39.0629 17.6072C38.8674 18.7651 38.8534 20.0077 39.021 21.3351C39.1886 22.6342 39.5099 23.9192 39.9847 25.1901Z" fill="#131313"/>
<path d="M61.7966 10.4902C62.3831 10.3208 62.9837 10.236 63.5982 10.236C64.1848 10.236 64.7853 10.3208 65.3998 10.4902C66.0144 10.6314 66.6149 10.8574 67.2015 11.168C67.5925 11.3657 67.9417 11.521 68.2489 11.634C68.5562 11.7187 68.8076 11.7328 69.0031 11.6764C69.3104 11.6764 69.5897 11.5916 69.8411 11.4222V14.8112C69.1986 13.4274 68.3886 12.3824 67.411 11.6764C66.4333 10.9421 65.1345 10.5749 63.5144 10.5749C63.0395 10.5749 62.4949 10.6455 61.8803 10.7867C61.0703 11.0127 60.386 11.3798 59.8273 11.8882C59.2966 12.3683 58.9195 12.919 58.6961 13.5403C58.4726 14.1617 58.4167 14.8253 58.5285 15.5314C58.6681 16.2092 59.0033 16.887 59.534 17.5648C60.1485 18.3273 61.3357 19.1605 63.0954 20.0642L66.9082 21.9282C70.0366 23.425 71.6008 25.4019 71.6008 27.859C71.6008 28.7345 71.3913 29.5959 70.9724 30.4431C70.5813 31.2621 70.0646 31.9823 69.4221 32.6036C68.7797 33.2249 68.0395 33.7192 67.2015 34.0863C66.3635 34.4817 65.5116 34.6794 64.6457 34.6794C64.0032 34.6794 63.3887 34.5947 62.8021 34.4252C62.2155 34.284 61.6569 34.1287 61.1262 33.9592C60.5955 33.7615 60.0927 33.5921 59.6178 33.4509C59.1709 33.2814 58.738 33.1967 58.319 33.1967C57.9558 33.1967 57.6486 33.2673 57.3972 33.4085V29.5111C57.7324 30.1889 58.1374 30.8244 58.6123 31.4175C59.115 32.0105 59.6737 32.5189 60.2882 32.9425C60.9027 33.3662 61.5591 33.7051 62.2574 33.9592C62.9557 34.2134 63.682 34.3405 64.4362 34.3405C65.0507 34.3405 65.6512 34.2558 66.2378 34.0863C67.1596 33.8321 67.8998 33.4085 68.4584 32.8154C69.0171 32.1941 69.3802 31.5163 69.5478 30.782C69.7154 30.0195 69.6735 29.2428 69.4221 28.4521C69.1986 27.6613 68.7517 26.9552 68.0814 26.3339C67.6344 25.882 66.978 25.3878 66.1121 24.8512C65.2741 24.3146 64.1987 23.7074 62.8859 23.0296C61.4055 22.2953 60.3161 21.674 59.6178 21.1656C58.9474 20.6291 58.5005 20.2054 58.2771 19.8948C57.6626 19.1322 57.3274 18.2567 57.2715 17.2683C57.2436 16.2798 57.4112 15.3337 57.7743 14.43C58.1374 13.498 58.6681 12.679 59.3664 11.9729C60.0927 11.2386 60.9027 10.7444 61.7966 10.4902Z" fill="#131313"/>
<path d="M73.0156 12.4813L77.2892 10.7444H77.3311V29.0451C77.3311 30.1183 77.373 30.895 77.4568 31.3751C77.5686 31.8552 77.6524 32.1941 77.7082 32.3918C77.9317 32.8154 78.211 33.1826 78.5462 33.4932H73.7279C74.2865 32.9284 74.6077 32.2365 74.6915 31.4175C74.8032 30.5702 74.8591 29.7794 74.8591 29.0451V19.81C74.8591 18.4544 74.8451 17.353 74.8172 16.5057C74.7893 15.6302 74.7334 14.9807 74.6496 14.557C74.5099 14.0769 74.3284 13.6533 74.1049 13.2862C73.8815 12.8908 73.5184 12.6225 73.0156 12.4813ZM74.063 6.38101C74.063 5.87265 74.2306 5.46314 74.5658 5.15248C74.901 4.81358 75.306 4.64413 75.7809 4.64413C76.2557 4.64413 76.6608 4.81358 76.9959 5.15248C77.3311 5.49139 77.4987 5.90089 77.4987 6.38101C77.4987 6.86112 77.3311 7.27063 76.9959 7.60953C76.6608 7.92019 76.2557 8.07552 75.7809 8.07552C75.306 8.07552 74.901 7.92019 74.5658 7.60953C74.2306 7.27063 74.063 6.86112 74.063 6.38101Z" fill="#131313"/>
<path d="M82.3547 28.4521L85.12 25.1054C84.5334 24.823 83.9608 24.47 83.4022 24.0463C82.8715 23.6227 82.3966 23.1285 81.9776 22.5636C81.5586 21.9705 81.2234 21.3351 80.9721 20.6573C80.7207 19.9795 80.595 19.2452 80.595 18.4544C80.595 17.4377 80.8045 16.4634 81.2234 15.5314C81.6424 14.5994 82.2011 13.7804 82.8994 13.0743C83.5977 12.34 84.3938 11.747 85.2876 11.2951C86.2094 10.815 87.1591 10.5326 88.1367 10.4478C90.0641 10.2501 91.7261 10.5749 93.1227 11.4222C94.5472 12.2694 95.7064 13.4838 96.6003 15.0654H100.12C100.427 15.0654 100.581 14.8959 100.581 14.557C100.581 14.4158 100.539 14.3029 100.455 14.2181C100.371 14.1052 100.259 14.0487 100.12 14.0487H96.9354C96.8516 14.0487 96.8097 14.0063 96.8097 13.9216C96.8097 13.7804 96.8516 13.7098 96.9354 13.7098H100.12C100.343 13.7098 100.525 13.7945 100.664 13.964C100.832 14.1334 100.916 14.3311 100.916 14.557C100.916 14.783 100.832 14.9807 100.664 15.1501C100.525 15.3196 100.343 15.4043 100.12 15.4043H96.8097C97.0332 15.8279 97.2008 16.2939 97.3125 16.8023C97.4243 17.3106 97.4801 17.9178 97.4801 18.6239C97.4801 19.4994 97.2986 20.3466 96.9354 21.1656C96.6003 21.9564 96.1394 22.6766 95.5528 23.3262C94.9662 23.9757 94.2819 24.5264 93.4998 24.9783C92.7456 25.4302 91.9495 25.7408 91.1115 25.9103C90.3294 26.0515 89.673 26.1221 89.1423 26.1221C88.4719 26.1221 87.8434 26.0515 87.2569 25.9103C86.6703 25.7408 86.0558 25.5149 85.4133 25.2325L82.6899 28.6639C82.3827 29.0593 82.3128 29.3276 82.4804 29.4688C82.648 29.61 82.9832 29.6806 83.486 29.6806C84.0167 29.6806 84.6871 29.6241 85.4971 29.5111C86.3351 29.3982 87.2429 29.2711 88.2205 29.1299C89.2261 28.9604 90.2596 28.8192 91.321 28.7062C92.3825 28.5933 93.416 28.5368 94.4215 28.5368C95.5109 28.5368 96.5165 28.6356 97.4382 28.8333C98.36 29.031 99.1142 29.3699 99.7008 29.85C100.315 30.3302 100.706 30.9938 100.874 31.8411C101.042 32.6884 100.902 33.7757 100.455 35.103C100.064 36.3457 99.2119 37.3483 97.8991 38.1108C96.5863 38.9016 94.7148 39.297 92.2847 39.297C90.8601 39.297 89.2401 39.1416 87.4244 38.831C85.6088 38.5203 83.5698 38.012 81.3073 37.3059C80.9162 37.1647 80.7067 36.9811 80.6788 36.7552C80.6788 36.5575 80.8603 36.3598 81.2234 36.1621C81.6424 35.9079 82.1173 35.6396 82.648 35.3572C83.2066 35.103 83.7094 34.8489 84.1563 34.5947C84.3239 34.51 84.5195 34.4676 84.7429 34.4676C85.2737 34.4676 85.7345 34.7359 86.1256 35.2725C86.9077 36.4586 87.9272 37.3059 89.1842 37.8143C90.4412 38.3509 91.74 38.6192 93.0808 38.6192C93.8908 38.6192 94.6729 38.5344 95.4271 38.365C96.2092 38.1955 96.9075 37.9555 97.522 37.6448C98.1645 37.3341 98.6952 36.9529 99.1142 36.501C99.5611 36.0774 99.8544 35.6114 99.994 35.103C100.245 34.2558 100.315 33.5497 100.204 32.9849C100.092 32.4201 99.8404 31.9682 99.4494 31.6293C99.0862 31.2904 98.5974 31.0503 97.9829 30.9091C97.3963 30.7679 96.726 30.6973 95.9718 30.6973C94.9383 30.6973 93.793 30.7961 92.5361 30.9938C91.3071 31.1915 90.078 31.4175 88.849 31.6716C87.62 31.9258 86.4468 32.1518 85.3295 32.3494C84.2402 32.5471 83.3044 32.646 82.5223 32.646C81.9916 32.646 81.5586 32.5754 81.2234 32.4342C80.8883 32.293 80.6927 32.067 80.6369 31.7564C80.581 31.4457 80.6788 31.0221 80.9302 30.4855C81.2095 29.9206 81.6843 29.2428 82.3547 28.4521ZM85.4971 24.597L92.159 16.5057C92.6618 15.8279 93.3461 15.3761 94.212 15.1501C93.7651 13.5403 93.0808 12.3683 92.159 11.634C91.2652 10.8997 89.9384 10.6173 88.1786 10.7867C87.201 10.8715 86.3909 11.0833 85.7485 11.4222C85.1061 11.7611 84.6033 12.213 84.2402 12.7778C83.877 13.3144 83.6256 13.964 83.486 14.7265C83.3463 15.489 83.2765 16.3504 83.2765 17.3106C83.2765 17.9319 83.2905 18.5815 83.3184 19.2593C83.3743 19.9089 83.472 20.5584 83.6117 21.208C83.7793 21.8293 84.0027 22.4365 84.2821 23.0296C84.5893 23.5945 84.9943 24.1169 85.4971 24.597ZM85.7066 24.8512C86.1815 25.1054 86.7401 25.3172 87.3826 25.4867C88.0529 25.6279 88.7512 25.6985 89.4775 25.6985C90.5389 25.6985 91.4048 25.5573 92.0752 25.2748C92.7456 24.9642 93.2763 24.5406 93.6674 24.004C94.0863 23.4391 94.3657 22.7613 94.5053 21.9705C94.6729 21.1515 94.7567 20.2478 94.7567 19.2593C94.7567 18.6662 94.7288 18.059 94.6729 17.4377C94.617 16.7882 94.5053 16.1386 94.3377 15.489C93.9467 15.5737 93.5835 15.7291 93.2484 15.955C92.9411 16.1527 92.6478 16.3928 92.3685 16.6752L85.7066 24.8512Z" fill="#131313"/>
<path d="M106.545 10.7444H106.587V18.7086C106.726 18.2285 106.894 17.7484 107.089 17.2683C107.285 16.7599 107.522 16.2657 107.802 15.7856C108.193 15.1078 108.667 14.4582 109.226 13.8369C109.813 13.2156 110.455 12.679 111.153 12.2271C111.852 11.747 112.564 11.3798 113.29 11.1256C114.044 10.8432 114.785 10.702 115.511 10.702C116.489 10.702 117.382 10.9844 118.192 11.5493C119.002 12.1141 119.645 13.0461 120.12 14.3452C120.287 14.7971 120.413 15.4043 120.497 16.1668C120.581 16.9294 120.623 17.8049 120.623 18.7933V29.0451C120.623 30.7114 120.776 31.8552 121.083 32.4765C121.195 32.8437 121.433 33.1826 121.796 33.4932H117.061C117.536 33.0696 117.857 32.4765 118.025 31.714C118.081 31.5728 118.123 31.3327 118.151 30.9938C118.178 30.6549 118.192 30.0054 118.192 29.0451V19.217C118.192 18.5109 118.137 17.7343 118.025 16.887C117.941 16.0397 117.746 15.2631 117.438 14.557C117.159 13.8228 116.74 13.2156 116.181 12.7354C115.623 12.2553 114.882 12.0153 113.961 12.0153C112.843 12.0153 111.74 12.3965 110.651 13.1591C109.561 13.9216 108.695 14.8536 108.053 15.955C107.662 16.6046 107.355 17.2965 107.131 18.0308C106.908 18.7368 106.726 19.4146 106.587 20.0642V29.0451C106.587 30.2031 106.628 31.008 106.712 31.4598C106.796 31.9117 106.88 32.2365 106.964 32.4342C107.187 32.886 107.438 33.2391 107.718 33.4932H102.983C103.542 32.9284 103.863 32.2365 103.947 31.4175C104.059 30.5984 104.115 29.8077 104.115 29.0451V20.1489C104.115 19.1605 104.101 18.3415 104.073 17.6919C104.073 17.0423 104.059 16.5199 104.031 16.1245C104.031 15.7291 104.017 15.4325 103.989 15.2348C103.989 15.0089 103.975 14.8395 103.947 14.7265C103.751 13.8792 103.444 13.272 103.025 12.9049C102.83 12.7072 102.578 12.566 102.271 12.4813L106.545 10.7444Z" fill="#131313"/>
<path d="M133.483 10.4902C134.656 10.4902 135.745 10.6879 136.751 11.0833C137.756 11.4504 138.622 11.987 139.348 12.6931C140.075 13.3709 140.661 14.204 141.108 15.1925C141.555 16.181 141.806 17.2683 141.862 18.4544C140.242 18.4544 138.608 18.4544 136.96 18.4544C135.312 18.4544 133.692 18.6098 132.1 18.9204C130.871 19.1464 129.865 19.4711 129.083 19.8948C128.301 20.2901 127.701 20.7985 127.282 21.4198C126.946 21.9282 126.737 22.493 126.653 23.1143C126.569 23.7357 126.583 24.357 126.695 24.9783C126.835 25.5996 127.044 26.2068 127.323 26.7999C127.631 27.3647 127.966 27.8731 128.329 28.325C130.256 30.5843 132.505 31.714 135.075 31.714C136.276 31.714 137.337 31.4033 138.259 30.782C139.209 30.1325 140.047 29.3134 140.773 28.325C141.527 27.3083 142.197 26.1645 142.784 24.8936C143.371 23.6227 143.929 22.3659 144.46 21.1233C144.991 19.8524 145.507 18.6521 146.01 17.5224C146.513 16.3928 147.058 15.4608 147.644 14.7265C147.868 14.4723 148.077 14.2181 148.273 13.964C148.468 13.6815 148.678 13.4274 148.901 13.2014C149.153 12.9755 149.474 12.7213 149.865 12.4389C150.256 12.1282 150.689 11.8458 151.164 11.5916C151.639 11.3375 152.127 11.1256 152.63 10.9562C153.133 10.7585 153.608 10.6597 154.055 10.6597C154.669 10.6597 155.172 10.8432 155.563 11.2104C155.926 11.521 156.136 11.9164 156.192 12.3965C156.247 12.8484 156.108 13.2579 155.773 13.6251C155.493 13.9075 155.2 14.0487 154.893 14.0487C154.641 14.0487 154.376 13.9781 154.097 13.8369C153.845 13.6957 153.594 13.5403 153.342 13.3709C152.672 12.806 152.002 12.5236 151.331 12.5236C150.884 12.5236 150.396 12.7072 149.865 13.0743C149.334 13.4132 148.831 13.8369 148.357 14.3452C147.91 14.8536 147.533 15.4043 147.225 15.9974C146.946 16.5622 146.806 17.0847 146.806 17.5648V28.7062C146.806 29.61 146.89 30.4714 147.058 31.2904C147.253 32.1094 147.728 32.8013 148.482 33.3662H143.203C143.678 32.9143 144.013 32.3636 144.209 31.714C144.264 31.5728 144.306 31.3186 144.334 30.9515C144.362 30.5843 144.376 29.9065 144.376 28.9181V25.9103C144.376 24.9218 144.25 24.4276 143.999 24.4276C143.776 24.4276 143.482 24.8371 143.119 25.6561C142.616 26.6446 142.044 27.6472 141.401 28.6639C140.759 29.6523 140.033 30.5561 139.223 31.3751C138.413 32.1659 137.505 32.8154 136.499 33.3238C135.494 33.8321 134.376 34.0863 133.147 34.0863C130.55 34.0863 128.329 33.0696 126.485 31.0362C124.642 29.0028 123.72 26.1927 123.72 22.606C123.72 21.0527 123.916 19.5559 124.307 18.1155C124.698 16.6469 125.284 15.3478 126.066 14.2181C126.876 13.0885 127.896 12.1847 129.125 11.5069C130.354 10.8291 131.807 10.4902 133.483 10.4902ZM126.318 25.063C126.262 24.8371 126.234 24.6253 126.234 24.4276C126.262 24.2299 126.276 24.0181 126.276 23.7921C126.276 22.8602 126.485 22.0694 126.904 21.4198C127.323 20.7703 127.868 20.2478 128.538 19.8524C129.237 19.4288 130.005 19.104 130.843 18.8781C131.709 18.6239 132.589 18.4544 133.483 18.3697C134.376 18.2567 135.242 18.1861 136.08 18.1579C136.946 18.1296 137.7 18.1155 138.343 18.1155L138.301 17.819C138.217 16.0962 138.022 14.9101 137.714 14.2605C137.212 13.0743 136.527 12.213 135.661 11.6764C134.823 11.1398 133.902 10.8715 132.896 10.8715C132.253 10.8715 131.597 10.9703 130.927 11.168C130.284 11.3657 129.642 11.6481 128.999 12.0153C127.994 12.5519 127.198 13.3003 126.611 14.2605C126.052 15.2207 125.675 16.2939 125.48 17.4801C125.284 18.638 125.256 19.8806 125.396 21.208C125.564 22.5071 125.871 23.7921 126.318 25.063ZM142.491 12.3542L146.806 10.5749V15.2348C146.331 15.8844 145.898 16.6752 145.507 17.6072C145.144 18.5109 144.767 19.457 144.376 20.4455V19.6406C144.376 18.6804 144.362 17.8896 144.334 17.2683C144.334 16.6469 144.32 16.1527 144.292 15.7856C144.292 15.3902 144.278 15.0936 144.25 14.8959C144.25 14.6982 144.237 14.557 144.209 14.4723C144.097 14.0204 143.901 13.5968 143.622 13.2014C143.343 12.7778 142.966 12.4954 142.491 12.3542Z" fill="#131313"/>
<path d="M155.304 11.4222C155.527 11.2527 155.778 11.0692 156.058 10.8715C156.309 10.6738 156.547 10.4478 156.77 10.1937C157.831 9.26168 158.767 8.11788 159.577 6.76227C159.717 6.59282 159.843 6.38101 159.954 6.12683C160.066 5.84441 160.192 5.54787 160.331 5.23721V10.9986H162.594C162.678 10.9986 162.72 11.0692 162.72 11.2104C162.72 11.2951 162.678 11.3375 162.594 11.3375H160.331V27.8166C160.331 28.3532 160.373 28.9181 160.457 29.5111C160.541 30.076 160.708 30.5984 160.96 31.0786C161.211 31.5587 161.546 31.9541 161.965 32.2647C162.384 32.5754 162.929 32.7307 163.599 32.7307C163.823 32.7307 164.004 32.7166 164.144 32.6884C164.312 32.6601 164.507 32.6036 164.731 32.5189C164.591 32.6601 164.493 32.7448 164.437 32.7731C163.516 33.5074 162.566 33.8745 161.588 33.8745C160.806 33.8745 160.164 33.7192 159.661 33.4085C159.186 33.0696 158.809 32.646 158.53 32.1376C158.278 31.6293 158.111 31.0503 158.027 30.4008C157.943 29.7512 157.901 29.0875 157.901 28.4097V11.4222H155.304Z" fill="#131313"/>
<path d="M165.283 12.4813L169.556 10.7444H169.598V29.0451C169.598 30.1183 169.64 30.895 169.724 31.3751C169.836 31.8552 169.919 32.1941 169.975 32.3918C170.199 32.8154 170.478 33.1826 170.813 33.4932H165.995C166.554 32.9284 166.875 32.2365 166.959 31.4175C167.07 30.5702 167.126 29.7794 167.126 29.0451V19.81C167.126 18.4544 167.112 17.353 167.084 16.5057C167.056 15.6302 167 14.9807 166.917 14.557C166.777 14.0769 166.595 13.6533 166.372 13.2862C166.149 12.8908 165.785 12.6225 165.283 12.4813ZM166.33 6.38101C166.33 5.87265 166.498 5.46314 166.833 5.15248C167.168 4.81358 167.573 4.64413 168.048 4.64413C168.523 4.64413 168.928 4.81358 169.263 5.15248C169.598 5.49139 169.766 5.90089 169.766 6.38101C169.766 6.86112 169.598 7.27063 169.263 7.60953C168.928 7.92019 168.523 8.07552 168.048 8.07552C167.573 8.07552 167.168 7.92019 166.833 7.60953C166.498 7.27063 166.33 6.86112 166.33 6.38101Z" fill="#131313"/>
<path d="M30.733 22.8813C30.733 31.3625 23.9329 38.2379 15.5447 38.2379C7.15646 38.2379 0.356445 31.3625 0.356445 22.8813C0.356445 14.4002 7.15646 7.52481 15.5447 7.52481C23.9329 7.52481 30.733 14.4002 30.733 22.8813Z" fill="#131313"/>
<path d="M29.6855 22.8813C29.6855 30.7776 23.3545 37.1788 15.5447 37.1788C7.73496 37.1788 1.40391 30.7776 1.40391 22.8813C1.40391 14.9851 7.73496 8.58388 15.5447 8.58388C23.3545 8.58388 29.6855 14.9851 29.6855 22.8813Z" fill="#B71218"/>
</svg>
