<svg width="97" height="72" viewBox="0 0 97 72" fill="none" xmlns="http://www.w3.org/2000/svg">
<path d="M0.0156628 41.7915C0.516873 31.2495 4.52656 22.339 12.0447 15.06C19.5629 7.78098 28.0835 2.76099 37.6065 0C33.8474 1.75699 30.4642 4.39248 27.457 7.90648C22.4449 12.9265 19.5629 17.4445 18.8111 21.4605C18.3099 24.9745 18.5605 27.861 19.5629 30.12C20.5653 32.128 21.5677 33.634 22.5702 34.638C24.3244 36.646 27.3317 38.6539 31.592 40.662C38.1077 43.674 41.3656 48.694 41.3656 55.7219C41.3656 60.4909 39.8619 64.2559 36.8547 67.0169C33.5968 70.7819 28.9606 72.4134 22.9461 71.9114C17.6834 71.9114 12.7965 69.6524 8.28565 65.1344C2.52172 59.3614 -0.234943 51.5804 0.0156628 41.7915ZM54.5224 42.1679C54.773 37.148 55.9007 32.5045 57.9055 28.2375C60.161 23.9705 62.9177 20.08 66.1755 16.566C69.4334 12.801 73.1925 9.66349 77.4528 7.15349C81.7131 4.39248 86.0987 2.25898 90.6096 0.75299C88.8553 1.75699 86.9758 3.01199 84.9709 4.51798C82.9661 6.02398 81.0866 7.78097 79.3323 9.78898C77.8287 11.546 76.4503 13.554 75.1973 15.813C74.1949 17.821 73.5684 19.829 73.3178 21.837C72.8166 25.351 73.0672 28.112 74.0696 30.12C75.072 32.128 76.0744 33.634 77.0769 34.638C79.3323 36.8969 82.3396 38.9049 86.0987 40.662C89.3565 42.1679 91.9879 44.1759 93.9927 46.6859C95.9976 48.9449 97 51.9569 97 55.7219C97 60.2399 95.4964 64.0049 92.4891 67.0169C88.9806 70.5309 84.3444 72.1624 78.5805 71.9114C72.566 71.9114 67.1779 69.5269 62.4164 64.7579C56.9031 59.2359 54.2718 51.7059 54.5224 42.1679Z" fill="#B71218"/>
</svg>
